<?xml version="1.0" encoding="UTF-8"?>
<svg width="12px" height="12px" viewBox="0 0 12 12" version="1.1" xmlns="http://www.w3.org/2000/svg" xmlns:xlink="http://www.w3.org/1999/xlink">
    <title>ic_delete</title>
    <g id="Вёрстка" stroke="none" stroke-width="1" fill="none" fill-rule="evenodd">
        <g id="6.-Поле.-Ховер-на-строку" transform="translate(-299.000000, -67.000000)" fill="#222222" fill-rule="nonzero">
            <g id="Group-11" transform="translate(54.000000, 0.000000)">
                <g id="Group-12" transform="translate(0.000000, 61.000000)">
                    <g id="ic_copy_black" transform="translate(243.000000, 4.000000)">
                        <path d="M11.4361148,6 C12.3276335,6 12.6509198,6.09282561 12.9768457,6.2671327 C13.3027716,6.4414398 13.5585602,6.69722837 13.7328673,7.0231543 C13.9071744,7.34908022 14,7.67236646 14,8.5638852 L14,11.4361148 C14,12.3276335 13.9071744,12.6509198 13.7328673,12.9768457 C13.5585602,13.3027716 13.3027716,13.5585602 12.9768457,13.7328673 C12.6509198,13.9071744 12.3276335,14 11.4361148,14 L8.5638852,14 C7.67236646,14 7.34908022,13.9071744 7.0231543,13.7328673 C6.69722837,13.5585602 6.4414398,13.3027716 6.2671327,12.9768457 C6.09282561,12.6509198 6,12.3276335 6,11.4361148 L6,11 L8,11 L8,11.4361148 C8,11.6960266 8.00903379,11.8705 8.02239632,11.9776037 C8.12949995,11.9909662 8.30397342,12 8.5638852,12 L11.4361148,12 C11.6960266,12 11.8705,11.9909662 11.9776037,11.9776037 C11.9909662,11.8705 12,11.6960266 12,11.4361148 L12,8.5638852 C12,8.30397342 11.9909662,8.12949995 11.9776037,8.02239632 C11.8705,8.00903379 11.6960266,8 11.4361148,8 L11,8 L11,6 L11.4361148,6 Z M10,8 L9.98315223,8.00174699 C9.9491245,8.48763719 9.86408309,8.73149351 9.7328673,8.9768457 C9.5585602,9.30277163 9.30277163,9.5585602 8.9768457,9.7328673 C8.73149351,9.86408309 8.48763719,9.9491245 8.00174699,9.98315223 L8,10 L4.5638852,10 C3.67236646,10 3.34908022,9.90717439 3.0231543,9.7328673 C2.69722837,9.5585602 2.4414398,9.30277163 2.2671327,8.9768457 C2.09282561,8.65091978 2,8.32763354 2,7.4361148 L2,4.5638852 C2,3.67236646 2.09282561,3.34908022 2.2671327,3.0231543 C2.4414398,2.69722837 2.69722837,2.4414398 3.0231543,2.2671327 C3.34908022,2.09282561 3.67236646,2 4.5638852,2 L7.4361148,2 C8.32763354,2 8.65091978,2.09282561 8.9768457,2.2671327 C9.30277163,2.4414398 9.5585602,2.69722837 9.7328673,3.0231543 C9.90717439,3.34908022 10,3.67236646 10,4.5638852 L10,8 Z" id="Combined-Shape"></path>
                    </g>
                </g>
            </g>
        </g>
    </g>
</svg>