<?xml version="1.0" encoding="UTF-8"?>
<svg width="16px" height="12px" viewBox="0 0 16 12" version="1.1" xmlns="http://www.w3.org/2000/svg" xmlns:xlink="http://www.w3.org/1999/xlink">
    <title>ic_delete</title>
    <g id="Вёрстка" stroke="none" stroke-width="1" fill="none" fill-rule="evenodd">
        <g id="6.-Поле.-Ховер-на-строку" transform="translate(-158.000000, -67.000000)" fill="#222222">
            <g id="ic_hide_black" transform="translate(158.000000, 65.000000)">
                <path d="M2.73274516,2 C2.46272053,2 2.22364993,2.16148198 2.12090885,2.40764353 C2.02014356,2.65643081 2.07941726,2.93869605 2.27238609,3.12577883 L3.44798115,4.29750782 C2.17491378,5.315632 1.34903355,6.5641634 0.942020805,7.29805304 C0.723366709,7.68994223 0.728635483,8.16191598 0.942020805,8.55643089 C1.70401716,9.95922353 3.89055812,13.1645752 8.00678733,13.1645752 C9.37271683,13.1645752 10.5127477,12.8055075 11.4591511,12.2823322 L12.8099329,13.6286717 C12.974582,13.8006566 13.2215558,13.8695818 13.4507474,13.8078773 C13.6819149,13.749455 13.8623704,13.569593 13.9209855,13.3391857 C13.9828936,13.1107478 13.9137409,12.8645863 13.7411886,12.7004786 L3.20364179,2.19758567 C3.08048421,2.06958167 2.91056627,2 2.73274516,2 Z M8.00678733,2.66168225 C7.20922676,2.66168225 6.49662516,2.79231198 5.84593164,2.99777483 L7.53062194,4.67692483 C7.68802654,4.65657547 7.84477255,4.63097467 8.00678733,4.63097467 C9.82583135,4.63097467 11.2997707,6.10006682 11.2997707,7.9131287 C11.2997707,8.07461068 11.2740854,8.23084121 11.2536689,8.38772818 L13.5119969,10.6386294 C14.217354,9.85682032 14.7369867,9.06188261 15.0458686,8.53345582 C15.2796704,8.1389409 15.277036,7.65186924 15.0557475,7.246195 C14.2865066,5.83355591 12.1026,2.66168225 8.00678733,2.66168225 Z M5.26439078,6.10794399 L6.22660052,7.06698939 C6.10278435,7.32365384 6.03099731,7.60788838 6.03099731,7.9131287 C6.03099731,9.00017812 6.91615124,9.88242112 8.00678733,9.88242112 C8.31303479,9.88242112 8.59820715,9.81087016 8.85571844,9.68746117 L9.82056257,10.6491323 C9.16723467,11.0823766 8.3492576,11.2878395 7.4792514,11.154584 C6.09817417,10.941244 4.96868087,9.81546518 4.75529555,8.43892978 C4.62094183,7.57178468 4.82971697,6.75912335 5.26439078,6.10794399 Z" id="Fill-1"></path>
            </g>
        </g>
    </g>
</svg>