<?xml version="1.0" encoding="UTF-8"?>
<svg width="12px" height="15px" viewBox="0 0 12 15" version="1.1" xmlns="http://www.w3.org/2000/svg" xmlns:xlink="http://www.w3.org/1999/xlink">
    <title>ic_arrow_seclect</title>
    <g id="Вёрстка" stroke="none" stroke-width="1" fill="none" fill-rule="evenodd">
        <g id="6.-Поле.-Ховер-на-строку" transform="translate(-66.000000, -569.000000)" fill="#A5B2BC" fill-rule="nonzero">
            <g id="Group" transform="translate(54.000000, 566.000000)">
                <g id="ic_block_grey" transform="translate(18.000000, 10.500000) scale(-1, 1) translate(-18.000000, -10.500000) translate(10.000000, 2.500000)">
                    <path d="M11.9833333,5.66666667 L11.3166667,5.66666667 L11.3166667,4.33333333 C11.3166667,2.49333333 9.82333333,1 7.98333333,1 C6.14333333,1 4.65,2.49333333 4.65,4.33333333 L4.65,5.66666667 L3.98333333,5.66666667 C3.25,5.66666667 2.65,6.26666667 2.65,7 L2.65,13.6666667 C2.65,14.4 3.25,15 3.98333333,15 L11.9833333,15 C12.7166667,15 13.3166667,14.4 13.3166667,13.6666667 L13.3166667,7 C13.3166667,6.26666667 12.7166667,5.66666667 11.9833333,5.66666667 Z M7.98333333,11.6666667 C7.25,11.6666667 6.65,11.0666667 6.65,10.3333333 C6.65,9.6 7.25,9 7.98333333,9 C8.71666667,9 9.31666667,9.6 9.31666667,10.3333333 C9.31666667,11.0666667 8.71666667,11.6666667 7.98333333,11.6666667 Z M10.05,5.66666667 L5.91666667,5.66666667 L5.91666667,4.33333333 C5.91666667,3.19333333 6.84333333,2.26666667 7.98333333,2.26666667 C9.12333333,2.26666667 10.05,3.19333333 10.05,4.33333333 L10.05,5.66666667 Z" id="Shape"></path>
                </g>
            </g>
        </g>
    </g>
</svg>