<?xml version="1.0" encoding="UTF-8"?>
<svg width="32px" height="33px" viewBox="0 0 32 33" version="1.1" xmlns="http://www.w3.org/2000/svg" xmlns:xlink="http://www.w3.org/1999/xlink">
    <title>Вёрстка</title>
    <defs>
        <rect id="path-1" x="0" y="0" width="1280" height="731"></rect>
    </defs>
    <g id="Вёрстка" stroke="none" stroke-width="1" fill="none" fill-rule="evenodd">
        <g id="6.-Поле.-Ховер-на-строку" transform="translate(-11.000000, -16.000000)">
            <g id="Bitmap">
                <mask id="mask-2" fill="white">
                    <use xlink:href="#path-1"></use>
                </mask>
                <use id="Mask" fill="#D8D8D8" fill-rule="nonzero" xlink:href="#path-1"></use>
            </g>
            <rect id="Rectangle" fill="#EEEFF2" x="0" y="0" width="220" height="731"></rect>
            <ellipse id="Combined-Shape" fill="#27AE60" cx="26.9986657" cy="32.5" rx="15.9986657" ry="16"></ellipse>
            <path d="M20.9989993,32.7418774 C20.9989993,28.5169232 22.9887261,25.6262674 22.9887261,25.6262674 L23.4707729,25.0009766 C23.7037622,25.1174602 24.3249566,25.2889498 25.1111401,25.5049298 C26.3341475,25.840628 27.9485902,26.2847196 29.1100579,26.8016212 C30.0613135,27.2267027 31.0254071,27.8062922 31.7501338,28.7074221 C32.4780907,29.608958 32.9310656,30.8360765 32.9310656,32.2969823 C32.9310656,33.8694723 32.2516447,34.9890406 31.5657633,35.6325688 C31.2357021,35.9423635 30.8992632,36.1567349 30.6307416,36.2994558 C30.9347955,37.8003865 30.944569,39.2617231 30.944569,40.4609766 L28.9547593,40.4609766 L28.9547593,40.0738988 C28.9612197,37.4048598 28.9709932,34.6452844 26.0655431,32.2969823 L27.2756296,30.6771286 C28.6312413,31.7727997 29.501576,33.0039687 30.0418494,34.2666556 L30.0968458,34.223831 C30.1292307,34.2003894 30.1583026,34.1785215 30.197148,34.1396729 C30.5659718,33.7902012 30.944569,33.3016533 30.944569,32.2969823 C30.944569,31.244989 30.6468927,30.5699429 30.197148,30.0101753 C29.7474033,29.4500018 29.1100579,28.9893271 28.333565,28.6439225 C27.5570721,28.2968944 26.7385036,28.0631236 25.9458596,27.8370314 C25.3958128,27.6801047 24.8587696,27.5268143 24.3540285,27.3415669 C23.975514,27.9688847 22.9887261,29.7598214 22.9887261,32.7418774 C22.9887261,34.67966 23.5031579,35.5095621 23.9495895,35.9185077 C24.3993342,36.3273705 24.9266868,36.394962 25.1305214,36.394962 C25.3893523,36.394962 25.8294064,36.1955006 26.3923741,35.941121 C26.6091295,35.8436268 26.842036,35.7380978 27.0911763,35.6325688 L27.8353671,37.506827 C27.6702951,37.5775662 27.4956153,37.6681853 27.3111619,37.764437 C26.728813,38.0669425 26.033241,38.4277622 25.1305214,38.4277622 C24.5870177,38.4277622 23.5420032,38.2651614 22.6134419,37.4113207 C21.6881109,36.5575629 20.9989993,35.064667 20.9989993,32.7418774 Z" id="path0_fill-path" fill="#FFFFFF"></path>
        </g>
    </g>
</svg>