<?xml version="1.0" encoding="UTF-8"?>
<svg width="16px" height="20px" viewBox="0 0 16 20" version="1.1" xmlns="http://www.w3.org/2000/svg" xmlns:xlink="http://www.w3.org/1999/xlink">
    <title>Shape</title>
    <g id="Вёрстка" stroke="none" stroke-width="1" fill="none" fill-rule="evenodd">
        <g id="6.-Поле.-Ховер-на-строку" transform="translate(-19.000000, -182.000000)" fill="#222222" fill-rule="nonzero">
            <path d="M27,182 C31.4181818,182 35,185.50313 35,189.824251 C35,194.969763 29.7985455,197.432979 29.1469091,198.006283 C28.4814545,198.592391 27.9316364,200.205982 27.7098182,200.949997 C27.6021818,201.310624 27.3003636,201.491464 27,201.5 C26.7003636,201.492176 26.3978182,201.311335 26.2901818,200.949997 C26.0683636,200.205982 25.5185455,198.591679 24.8530909,198.006283 C24.2014545,197.432979 19,194.969763 19,189.824251 C19,185.50313 22.5818182,182 27,182 Z M27,187.5 C25.6192881,187.5 24.5,188.619288 24.5,190 C24.5,191.380712 25.6192881,192.5 27,192.5 C28.3807119,192.5 29.5,191.380712 29.5,190 C29.5,188.619288 28.3807119,187.5 27,187.5 Z" id="Shape"></path>
        </g>
    </g>
</svg>