<?xml version="1.0" encoding="UTF-8"?>
<svg width="20px" height="20px" viewBox="0 0 20 20" version="1.1" xmlns="http://www.w3.org/2000/svg" xmlns:xlink="http://www.w3.org/1999/xlink">
    <title>Combined Shape</title>
    <g id="Вёрстка" stroke="none" stroke-width="1" fill="none" fill-rule="evenodd">
        <g id="6.-Поле.-Ховер-на-строку" transform="translate(-17.000000, -696.000000)" fill="#333333">
            <path d="M27.4347826,696 C32.52,696 37,700.48 37,706.434783 C37,711.52 32.52,716 27.4347826,716 C21.48,716 17,711.52 17,706.434783 C17,700.48 21.48,696 27.4347826,696 Z M23.3299969,710.705773 L22.3920918,711.193551 C21.902131,711.448391 21.7115037,712.052164 21.9663239,712.542135 C22.0173553,712.640258 22.0843115,712.729236 22.1644658,712.805445 C23.2459575,713.833699 24.856963,714.347826 26.9974823,714.347826 C29.1403291,714.347826 30.7535953,713.832425 31.8372808,712.801622 C32.2374955,712.420999 32.2533266,711.788004 31.8726712,711.38782 C31.7972762,711.308557 31.7093868,711.242202 31.6125054,711.191398 L30.6915856,710.708477 C30.4073384,710.55942 30.0688192,710.555859 29.781499,710.698903 L27.4579172,711.855707 C27.1774264,711.995351 26.8476993,711.995453 26.5671218,711.855984 L24.2365193,710.697492 C23.9503777,710.555258 23.6134924,710.558335 23.3299969,710.705773 Z M25.4462799,700.538408 C24.7136365,700.770034 24.8760265,701.188598 24.8760265,701.188598 L24.8529005,701.180826 C24.7252729,701.141557 24.0988269,700.996261 23.7147489,701.779622 C23.420181,702.380717 23.6247421,703.066154 23.8393739,704.044271 C23.9451162,704.524517 23.9218277,705.004134 23.9746989,705.293667 C23.9746989,705.293667 23.8790272,705.381156 23.8022382,705.306885 C23.7254491,705.233243 23.508929,705.023017 23.381157,705.023017 C23.2401672,705.023017 23.0551181,705.244572 23.1149129,705.697124 C23.1753371,706.149676 23.2156199,706.353608 23.4371753,706.898055 C23.6587307,707.442502 24.0143523,707.691752 24.1773717,707.641399 C24.3397617,707.590416 24.4052213,707.483415 24.4052213,707.483415 C24.4052213,707.483415 24.550617,708.05178 24.6456592,708.331871 C24.9465214,709.221869 26.0108685,710.230198 26.6125928,710.403288 C26.9505906,710.500848 27.1368986,710.475671 27.4553844,710.403288 C27.9010129,710.30321 28.9074535,709.496925 29.375741,708.374672 C29.4695244,708.11598 29.5570136,707.908902 29.6482793,707.446908 C29.6482793,707.404108 29.6797502,707.519921 29.9094881,707.548245 C30.1398553,707.575939 30.2348976,707.256824 30.4690413,706.781613 C30.8907519,705.782096 30.8296983,705.103582 30.5464598,705.051341 C30.4086171,705.026164 30.3123161,705.094771 30.2185327,705.181001 C30.1719557,705.181001 30.1253787,705.181001 30.1253787,705.137571 C30.1253787,704.83545 30.1864323,704.384786 30.2846216,703.531294 C30.5074359,701.600867 30.0208952,700.979001 30.0208952,700.979001 L30.0107478,700.984004 C29.9512302,701.009576 29.613065,701.108397 28.5593849,700.678139 C27.7140755,700.333847 26.4760089,700.212999 25.4462799,700.538408 Z" id="Combined-Shape"></path>
        </g>
    </g>
</svg>